<svg width="71" height="80" viewBox="0 0 71 80" fill="none" xmlns="http://www.w3.org/2000/svg">
<path d="M71 49.5V0L51.4819 22.5L51 49.5L49.5 54L47.5 57L44.5 59.5L40.5 61H35L29.5 60L25 57L22 54L19.5 49.5V23.1214L0 0V49.5L1 54.5L3.5 60L6.5 65.5L11.5 69.5L16.5 73L22.5 76L28.5 78.5L35 79.5H41.5L47.5 77L53.5 74.5L58 71L62.5 66.5L66.5 62L69.5 56L71 49.5Z" fill="url(#paint0_linear_460_280)"/>
<path d="M20 2H1L35.5 42.5L70 2H51.5L35.5 19.5L20 2Z" fill="#01C8FE"/>
<path d="M18.5 42.5L1 4L18.5 24V42.5Z" fill="#0269C6"/>
<path d="M52 42.5L69.5 4L52 24V42.5Z" fill="#0269C6"/>
<defs>
<linearGradient id="paint0_linear_460_280" x1="35.5" y1="0" x2="35.5" y2="79.5" gradientUnits="userSpaceOnUse">
<stop stop-color="#1A86E1"/>
<stop offset="1" stop-color="#0087FA"/>
</linearGradient>
</defs>
</svg>
